<svg width="487" height="487" viewBox="0 0 487 487" fill="none" xmlns="http://www.w3.org/2000/svg">
<g filter="url(#filter0_i_31_4)">
<path fill-rule="evenodd" clip-rule="evenodd" d="M461.999 350.849C402.712 471.523 256.824 521.286 136.151 461.999C15.4771 402.712 -34.2863 256.824 25.0011 136.151C84.2885 15.4771 230.176 -34.2863 350.849 25.0011C471.523 84.2885 521.286 230.176 461.999 350.849ZM133.33 276.487C134.161 270.24 144.277 258.756 154.69 260.14C159.148 260.733 162.705 260.041 165.251 259.545C168.652 258.883 170.247 258.573 169.772 262.146C168.942 268.393 161.964 270.701 151.551 269.316C145.562 268.52 140.159 273.08 136.808 275.908C134.333 277.997 132.977 279.141 133.33 276.487ZM158.317 279.001C165.122 279.462 171.145 272.354 171.396 268.646C171.503 267.071 170.678 267.791 169.172 269.105C167.132 270.885 163.843 273.754 159.929 273.489C153.125 273.027 148.713 274.624 148.461 278.332C148.318 280.453 149.336 280.216 151.508 279.71C153.133 279.332 155.404 278.803 158.317 279.001ZM159.089 253.555C156.233 250.635 146.475 248.652 141.545 253.473C139.434 255.537 137.298 256.579 135.77 257.324C133.728 258.32 132.77 258.787 134.403 260.457C137.259 263.377 141.816 261.827 146.746 257.006C149.582 254.233 154.184 254.474 157.039 254.624C159.147 254.735 160.302 254.796 159.089 253.555ZM145.725 407.521C141.614 414.188 140.457 416.065 144.557 413.892C157.558 407.005 222.32 287.819 213.956 272.032C206.593 258.135 192.292 250.88 180.105 254.039C190.013 245.933 192.37 229.774 185.026 215.596C176.809 199.731 41.9553 185.117 28.8909 191.884C24.7707 194.018 26.9724 194.135 34.7933 194.551C51.7709 195.454 95.2285 197.764 157.978 225.173C160.921 230.855 162.424 237.362 163.741 243.064L163.741 243.064C165.711 251.594 167.265 258.323 172.601 257.789C168.385 261.943 173.153 267.183 179.255 273.892L179.256 273.892C183.194 278.221 187.688 283.162 190.683 288.816C177.491 356.008 154.649 393.05 145.725 407.521ZM113.492 287.545C106.522 287.664 101.014 296.199 101.085 300.381C101.116 302.158 101.893 301.273 103.311 299.658C105.231 297.471 108.328 293.946 112.337 293.878C119.308 293.759 123.66 291.556 123.589 287.374C123.549 284.982 122.532 285.343 120.365 286.113C118.743 286.689 116.477 287.495 113.492 287.545ZM116.793 284.201C114.58 282.318 107.57 281.507 104.431 285.196C103.087 286.775 101.654 287.636 100.629 288.252C99.2602 289.075 98.6178 289.461 99.8834 290.539C102.097 292.422 105.199 291.058 108.338 287.37C110.144 285.248 113.402 285.142 115.423 285.076C116.916 285.028 117.733 285.001 116.793 284.201ZM115.441 299.384C120.278 299.64 124.508 293.992 124.662 291.09C124.727 289.857 124.146 290.432 123.085 291.483C121.648 292.905 119.331 295.199 116.548 295.051C111.712 294.796 108.588 296.111 108.435 299.013C108.347 300.673 109.069 300.472 110.608 300.043C111.76 299.723 113.37 299.274 115.441 299.384ZM122.007 389.457C119.53 391.287 120.104 389.941 122.145 385.161C126.575 374.782 137.913 348.217 139.944 302.815C137.421 299.4 133.984 296.601 130.972 294.148C126.305 290.347 122.659 287.377 125.016 284.235C121.566 285.112 119.883 280.849 117.748 275.445C116.322 271.832 114.693 267.709 112.202 264.271C68.3132 252.47 39.5625 255.24 28.3304 256.322C23.1562 256.821 21.6996 256.961 24.1934 255.154C32.1006 249.424 122.051 245.715 129.01 255.317C135.228 263.898 135.275 274.736 129.571 281.034C137.259 277.758 147.361 281.109 153.564 289.504C160.61 299.041 129.861 383.654 122.007 389.457ZM70.3518 339.34C69.7884 337.927 70.5605 334.315 72.9153 333.376C73.9234 332.974 74.5903 332.408 75.0675 332.003C75.705 331.462 76.0041 331.208 76.3263 332.016C76.8897 333.429 75.6938 334.739 73.339 335.678C71.9845 336.218 71.3863 337.816 71.0152 338.807C70.7412 339.539 70.5911 339.94 70.3518 339.34ZM70.7555 333.288C71.3935 332.311 72.5993 331.968 72.9406 332.191C73.0856 332.286 72.942 332.35 72.68 332.468C72.3251 332.628 71.753 332.885 71.386 333.448C70.7479 334.425 70.1726 334.927 69.8313 334.704C69.6361 334.576 69.7578 334.451 70.017 334.185C70.2111 333.985 70.4823 333.707 70.7555 333.288ZM78.1683 333.198C78.3389 334.009 77.5867 335.877 76.2343 336.162C75.6553 336.283 75.2443 336.525 74.9501 336.698C74.5572 336.929 74.3728 337.037 74.2753 336.573C74.1047 335.762 74.8694 335.17 76.2218 334.886C76.9997 334.722 77.4703 333.92 77.7622 333.422C77.9777 333.055 78.0958 332.853 78.1683 333.198ZM88.4437 365.451C88.3663 367.339 88.3445 367.871 88.9507 366.929C90.8729 363.944 90.4185 331.21 86.7928 328.876C83.601 326.821 79.7337 326.984 77.5424 329.09C78.6701 326.213 77.2567 322.533 74.0359 320.418C70.432 318.05 40.326 330.909 38.3762 333.876C37.7613 334.812 38.2385 334.577 39.9335 333.74C43.613 331.924 53.0314 327.275 69.4754 325.629C70.766 326.477 71.8512 327.669 72.8021 328.713C74.2249 330.276 75.3471 331.508 76.4071 330.765C76.0105 332.137 77.6331 332.677 79.7103 333.367C81.0505 333.813 82.58 334.322 83.8785 335.158C89.0417 350.857 88.6117 361.351 88.4437 365.451ZM87.7656 312.238C82.6183 313.51 79.9859 320.773 80.7493 323.862C81.0735 325.173 81.4992 324.385 82.2761 322.947C83.3283 321 85.0245 317.86 87.9854 317.128C93.1326 315.856 95.9848 313.483 95.2215 310.395C94.785 308.629 94.0927 309.07 92.6172 310.008C91.5127 310.711 89.9692 311.693 87.7656 312.238ZM86.4237 309.336C84.4853 308.742 79.7716 310.163 78.7816 313.393C78.3578 314.776 77.6787 315.724 77.1928 316.402C76.5437 317.308 76.2391 317.733 77.3476 318.073C79.286 318.667 80.8957 316.935 81.8857 313.705C82.4552 311.846 84.5124 310.877 85.7885 310.276C86.7308 309.832 87.247 309.589 86.4237 309.336ZM93.5984 320.852C96.8687 320.002 98.4908 315.354 97.9809 313.392C97.7642 312.558 97.499 313.064 97.0149 313.986C96.3593 315.235 95.3022 317.249 93.4211 317.737C90.1508 318.587 88.3514 320.121 88.8614 322.083C89.153 323.205 89.5908 322.919 90.5238 322.31C91.2223 321.854 92.1983 321.216 93.5984 320.852ZM111.395 386.34C109.87 388.118 110.067 387.022 110.767 383.132C112.287 374.685 116.179 353.065 109.969 319.064C107.518 316.96 104.495 315.469 101.845 314.163C97.7391 312.138 94.5316 310.556 95.7461 307.826C93.3374 309.063 91.3648 306.189 88.8639 302.544C87.1923 300.109 85.2847 297.329 82.8531 295.203C48.313 293.913 27.4704 300.852 19.3278 303.563C15.5769 304.812 14.5209 305.163 16.0625 303.4C20.9505 297.809 87.0019 279.774 93.7917 285.71C99.8598 291.015 101.736 299.043 98.5771 304.68C103.719 300.945 111.778 301.712 117.804 306.881C124.648 312.754 116.231 380.704 111.395 386.34ZM256.582 126.563C261.772 121.752 253.284 136.648 213.348 189.726C219.53 196.395 217.862 197.699 213.457 201.142C212.296 202.049 210.946 203.105 209.498 204.447C203.377 210.121 202.679 209.345 197.238 203.299L197.237 203.299L197.236 203.297L197.234 203.295L197.23 203.291C196.505 202.486 195.696 201.586 194.778 200.596C186.967 192.17 249.642 132.996 256.582 126.563ZM257.287 251.208C313.859 216.398 329.482 209.337 324.208 214.056C317.156 220.364 252.393 277.246 244.732 268.683C243.829 267.674 243.008 266.782 242.271 265.984L242.27 265.982C236.758 260 236.051 259.233 242.272 253.668C243.742 252.352 244.919 251.105 245.931 250.034C249.77 245.97 251.224 244.43 257.287 251.208ZM239.719 228.475C246.027 247.409 218.721 273.876 218.721 273.876L217.756 261.337C217.214 254.286 211.694 248.639 204.657 247.935L201.731 247.643C199.133 247.383 196.51 247.612 193.996 248.318L186.388 251.053L191.283 244.527C191.823 243.807 192.413 243.126 193.05 242.49L194.718 240.822C195.502 240.038 196.186 239.161 196.756 238.211C199.67 233.355 199.256 227.198 195.718 222.775L186.388 211.113C188.468 211.529 191.886 211.688 196.025 211.88C210.812 212.567 234.79 213.681 239.719 228.475ZM233.489 241.992L232.034 243.445L232.185 241.037C232.311 239.036 233.226 237.166 234.729 235.838C235.594 237.951 235.105 240.378 233.489 241.992ZM234.641 239.148C234.751 239.148 234.84 239.059 234.84 238.949C234.84 238.92 234.834 238.892 234.822 238.867C234.828 238.848 234.833 238.828 234.836 238.808C234.838 238.789 234.84 238.77 234.84 238.75C234.84 238.531 234.662 238.353 234.442 238.353C234.222 238.353 234.044 238.531 234.044 238.75C234.044 238.97 234.222 239.148 234.442 239.148C234.452 239.148 234.462 239.147 234.472 239.147L234.485 239.146C234.493 239.145 234.5 239.144 234.507 239.143L234.517 239.141C234.523 239.14 234.528 239.139 234.533 239.137C234.542 239.135 234.551 239.133 234.559 239.13C234.584 239.141 234.612 239.148 234.641 239.148ZM234.442 239.943C234.442 240.163 234.264 240.341 234.044 240.341C233.825 240.341 233.647 240.163 233.647 239.943C233.647 239.724 233.825 239.546 234.044 239.546C234.264 239.546 234.442 239.724 234.442 239.943ZM233.629 239.265C233.641 239.228 233.647 239.189 233.647 239.148C233.647 238.928 233.469 238.75 233.249 238.75C233.03 238.75 232.852 238.928 232.852 239.148C232.852 239.368 233.03 239.546 233.249 239.546C233.255 239.546 233.26 239.545 233.266 239.545C233.272 239.545 233.278 239.545 233.284 239.544C233.295 239.543 233.306 239.542 233.317 239.54C233.334 239.537 233.35 239.533 233.366 239.528C233.391 239.539 233.419 239.546 233.448 239.546C233.558 239.546 233.647 239.457 233.647 239.347C233.647 239.318 233.641 239.29 233.629 239.265ZM224.426 222.022L226.379 222.668C228.547 223.385 230.073 225.333 230.249 227.61C228.31 227.099 226.653 225.838 225.642 224.106L224.426 222.022ZM229.041 224.958C229.023 224.922 229 224.889 228.973 224.862C228.973 224.856 228.972 224.851 228.971 224.846C228.971 224.84 228.97 224.833 228.968 224.827C228.965 224.811 228.959 224.796 228.952 224.781C228.902 224.682 228.783 224.643 228.685 224.692C228.672 224.698 228.661 224.706 228.65 224.714C228.639 224.723 228.629 224.733 228.62 224.745C228.581 224.751 228.543 224.763 228.507 224.781C228.311 224.88 228.232 225.119 228.33 225.315C228.429 225.512 228.668 225.591 228.864 225.492C229.06 225.394 229.14 225.155 229.041 224.958ZM227.616 223.894C227.812 223.795 228.051 223.874 228.15 224.071C228.249 224.267 228.169 224.506 227.973 224.604C227.777 224.703 227.538 224.624 227.439 224.428C227.341 224.231 227.42 223.992 227.616 223.894ZM227.263 224.962C227.299 224.943 227.337 224.931 227.375 224.925C227.392 224.903 227.414 224.885 227.44 224.872C227.538 224.823 227.658 224.863 227.707 224.961C227.716 224.978 227.722 224.996 227.725 225.014C227.727 225.023 227.728 225.033 227.728 225.042C227.742 225.056 227.755 225.072 227.767 225.089C227.772 225.096 227.777 225.104 227.782 225.112C227.787 225.121 227.792 225.13 227.796 225.139C227.895 225.335 227.816 225.574 227.62 225.672C227.423 225.771 227.184 225.692 227.086 225.496C226.987 225.299 227.066 225.06 227.263 224.962ZM365.315 198.831C366.312 202.475 361.961 205.187 359.128 202.686L341.719 187.31C341.749 188.415 342.165 189.475 342.897 190.306L349.271 197.541C350.291 198.699 350.883 200.174 350.946 201.717L351.407 213.052L352.445 213.094C352.944 213.114 353.18 213.719 352.826 214.072L348.854 218.03C348.484 218.397 347.856 218.122 347.877 217.601L348.042 213.49C348.054 213.174 348.321 212.928 348.637 212.941L349.397 212.971L348.942 201.798C348.898 200.715 348.483 199.68 347.766 198.866L341.392 191.631C340.317 190.41 339.72 188.841 339.712 187.214L339.704 185.531L321.563 169.511L321.437 171.247L321.11 175.759C321.027 176.899 321.36 178.03 322.047 178.943L327.845 186.647C328.774 187.881 329.25 189.396 329.193 190.939L328.78 202.277L329.811 202.398C330.308 202.457 330.496 203.078 330.116 203.403L325.851 207.043C325.454 207.381 324.849 207.058 324.91 206.54L325.391 202.454C325.428 202.14 325.713 201.916 326.027 201.952L326.782 202.041L327.19 190.866C327.229 189.783 326.895 188.719 326.243 187.853L320.445 180.148C319.467 178.848 318.993 177.237 319.11 175.614L319.438 171.102L319.674 167.842L305.684 155.488L305.278 156.802C304.941 157.894 305.011 159.071 305.475 160.115L309.389 168.927C310.016 170.338 310.138 171.922 309.736 173.413L306.781 184.366L307.758 184.716C308.229 184.885 308.272 185.533 307.829 185.764L302.853 188.35C302.391 188.59 301.874 188.139 302.05 187.649L303.439 183.776C303.545 183.478 303.873 183.323 304.171 183.43L304.887 183.687L307.8 172.89C308.083 171.844 307.997 170.732 307.557 169.741L303.643 160.929C302.982 159.442 302.883 157.766 303.363 156.211L304.036 154.032L299.484 150.012C297.557 148.31 297.838 145.228 300.039 143.902L338.874 120.512C341.035 119.211 343.84 120.334 344.506 122.767L344.567 122.988L345.453 123.127L349.922 123.828C351.53 124.08 352.992 124.906 354.038 126.152L360.233 133.541C360.93 134.372 361.891 134.938 362.955 135.144L373.933 137.272L374.017 136.516C374.052 136.201 374.336 135.975 374.65 136.01L378.739 136.464C379.257 136.522 379.435 137.184 379.016 137.494L374.506 140.827C374.104 141.124 373.541 140.8 373.596 140.303L373.711 139.271L362.574 137.112C361.058 136.818 359.689 136.012 358.697 134.829L352.501 127.441C351.767 126.565 350.741 125.985 349.612 125.808L345.147 125.109L349.932 142.602L350.045 142.321L356.235 144.812L360.432 146.5C361.942 147.108 363.18 148.242 363.918 149.692L368.291 158.286C368.782 159.252 369.591 160.02 370.582 160.461L380.799 165.006L381.051 164.288C381.156 163.989 381.483 163.832 381.782 163.937L385.663 165.301C386.155 165.473 386.179 166.159 385.701 166.367L380.557 168.599C380.098 168.798 379.623 168.355 379.788 167.883L380.133 166.903L369.767 162.292C368.356 161.665 367.204 160.571 366.504 159.195L362.131 150.601C361.613 149.583 360.743 148.787 359.684 148.36L355.487 146.671L350.496 144.663L356.776 167.618L357.743 168.097L361.797 170.104C363.256 170.826 364.403 172.052 365.027 173.554L368.725 182.46C369.141 183.461 369.888 184.289 370.842 184.804L380.678 190.123L380.985 189.427C381.113 189.137 381.451 189.006 381.74 189.133L385.505 190.792C385.982 191.002 385.954 191.688 385.461 191.857L380.16 193.687C379.688 193.85 379.248 193.372 379.449 192.914L379.868 191.964L369.888 186.568C368.53 185.833 367.465 184.654 366.873 183.228L363.176 174.323C362.737 173.268 361.932 172.407 360.908 171.9L357.484 170.205L365.315 198.831ZM344.776 168.957C345.123 170.228 343.606 171.173 342.618 170.301L321.82 151.933C321.148 151.34 321.245 150.265 322.013 149.803L335.555 141.646C336.309 141.192 337.287 141.584 337.519 142.432L344.776 168.957ZM295.284 102.476C294.814 101.231 296.25 100.136 297.326 100.919L312.229 111.771C312.407 111.539 312.577 111.302 312.741 111.063C313.341 110.181 313.85 109.261 314.326 108.349C314.565 107.893 314.791 107.437 315.017 106.984L315.018 106.981C315.244 106.526 315.47 106.073 315.705 105.624C316.173 104.727 316.667 103.862 317.182 103.029C319.236 99.7068 321.63 96.8805 324.101 95.0505C325.331 94.1401 326.565 93.4918 327.672 93.1336C328.779 92.7635 329.742 92.6591 330.49 92.6726C331.241 92.6851 331.793 92.7861 332.157 92.8695L332.706 93.0109L332.143 92.9003C331.772 92.8364 331.212 92.7647 330.463 92.7862C329.717 92.8067 328.771 92.9499 327.702 93.3484C326.633 93.735 325.457 94.4003 324.287 95.3147C321.94 97.1516 319.671 99.952 317.714 103.234C317.224 104.056 316.753 104.91 316.307 105.791C316.096 106.207 315.89 106.633 315.681 107.066L315.68 107.068C315.448 107.547 315.212 108.035 314.961 108.525C314.484 109.458 313.969 110.408 313.338 111.344C313.154 111.614 312.961 111.886 312.755 112.154L319.979 117.415C320.711 117.947 320.715 119.037 319.987 119.575L307.144 129.06C306.43 129.587 305.409 129.286 305.095 128.455L302.184 120.746L301.924 120.987C301.481 121.364 300.957 121.673 300.381 121.854C299.807 122.038 299.194 122.083 298.602 122.03C297.412 121.917 296.344 121.461 295.375 120.941C294.404 120.413 293.522 119.791 292.682 119.163C292.24 118.832 291.812 118.494 291.391 118.162L291.39 118.161C291.01 117.861 290.636 117.566 290.262 117.284C289.472 116.686 288.673 116.133 287.874 115.626C284.681 113.601 281.451 112.278 278.607 111.991C277.191 111.848 275.886 111.964 274.802 112.293C273.713 112.608 272.848 113.102 272.209 113.585C271.567 114.069 271.128 114.521 270.844 114.837L270.422 115.33L270.819 114.815C271.086 114.484 271.505 114.007 272.132 113.487C272.758 112.968 273.619 112.424 274.727 112.053C275.829 111.67 277.175 111.498 278.64 111.595C281.585 111.792 284.932 113.057 288.226 115.057C289.052 115.559 289.875 116.108 290.691 116.706C291.101 117.006 291.505 117.316 291.91 117.628C292.314 117.938 292.719 118.25 293.135 118.554C293.965 119.162 294.826 119.757 295.748 120.251C296.665 120.74 297.654 121.146 298.671 121.24C299.177 121.285 299.68 121.246 300.145 121.1C300.611 120.954 301.04 120.706 301.417 120.39L301.689 120.139C301.745 120.083 301.798 120.024 301.851 119.966L301.878 119.936L295.284 102.476ZM304.811 119.879C304.698 119.763 304.805 119.571 304.964 119.606L308.298 120.343C308.405 120.367 308.459 120.489 308.404 120.584L307.432 122.269C307.378 122.363 307.249 122.379 307.174 122.302L304.811 119.879ZM309.926 114.769C309.905 114.609 310.107 114.52 310.212 114.643L312.406 117.22C312.476 117.302 312.448 117.429 312.349 117.474L310.581 118.285C310.481 118.331 310.365 118.267 310.351 118.157L309.926 114.769ZM69.1594 340.443C68.7054 340.443 68.2576 340.549 67.8514 340.752L64.6652 342.345L41.8422 353.756L62.3137 345.227C63.7366 344.634 65.3765 344.958 66.4664 346.048L66.5671 346.149V347.633C66.5671 347.911 66.5367 348.187 66.4765 348.458L62.7632 365.168L70.0431 348.788C70.2592 348.302 70.3709 347.776 70.3709 347.243V346.149L76.0767 353.756L83.6843 365.168L72.6114 343.022C72.3872 342.574 72.0921 342.164 71.7375 341.81L71.2276 341.3C70.6791 340.751 69.9351 340.443 69.1594 340.443Z" fill="#F1F1F1"/>
</g>
<defs>
<filter id="filter0_i_31_4" x="0" y="0" width="487" height="502.215" filterUnits="userSpaceOnUse" color-interpolation-filters="sRGB">
<feFlood flood-opacity="0" result="BackgroundImageFix"/>
<feBlend mode="normal" in="SourceGraphic" in2="BackgroundImageFix" result="shape"/>
<feColorMatrix in="SourceAlpha" type="matrix" values="0 0 0 0 0 0 0 0 0 0 0 0 0 0 0 0 0 0 127 0" result="hardAlpha"/>
<feOffset dy="15.2153"/>
<feGaussianBlur stdDeviation="7.60767"/>
<feComposite in2="hardAlpha" operator="arithmetic" k2="-1" k3="1"/>
<feColorMatrix type="matrix" values="0 0 0 0 0 0 0 0 0 0 0 0 0 0 0 0 0 0 0.25 0"/>
<feBlend mode="normal" in2="shape" result="effect1_innerShadow_31_4"/>
</filter>
</defs>
</svg>
