<svg width="128" height="128" viewBox="0 0 128 128" fill="none" xmlns="http://www.w3.org/2000/svg">
<g filter="url(#filter0_i_57_266)">
<path fill-rule="evenodd" clip-rule="evenodd" d="M121.429 92.215C105.846 123.932 67.5021 137.012 35.785 121.429C4.06789 105.846 -9.0116 67.5021 6.57113 35.785C22.1538 4.06789 60.4979 -9.01159 92.215 6.57113C123.932 22.1539 137.012 60.4979 121.429 92.215ZM36.4988 74.5299C36.7273 72.8109 39.511 69.6512 42.376 70.0321C43.6026 70.1951 44.5815 70.0046 45.282 69.8683C46.2177 69.6862 46.6568 69.6008 46.5261 70.5838C46.2975 72.3028 44.3774 72.9378 41.5124 72.5569C39.8644 72.3378 38.3778 73.5924 37.4557 74.3706C36.7748 74.9453 36.4017 75.2601 36.4988 74.5299ZM43.3742 75.2216C45.2464 75.3486 46.9037 73.3927 46.9729 72.3724C47.0023 71.939 46.7752 72.1371 46.3607 72.4988C45.7995 72.9885 44.8945 73.7781 43.8176 73.705C41.9454 73.5781 40.7315 74.0174 40.6623 75.0377C40.6227 75.6212 40.903 75.5559 41.5005 75.4169C41.9477 75.3128 42.5727 75.1673 43.3742 75.2216ZM43.5864 68.2202C42.8008 67.4168 40.1157 66.871 38.7591 68.1976C38.1784 68.7655 37.5907 69.0521 37.1702 69.2572C36.6084 69.5312 36.3448 69.6597 36.7941 70.1192C37.5798 70.9226 38.8337 70.4963 40.1903 69.1697C40.9706 68.4066 42.237 68.4731 43.0224 68.5144C43.6024 68.5448 43.9202 68.5615 43.5864 68.2202ZM39.9094 110.585C38.7783 112.419 38.4599 112.935 39.5881 112.338C43.1654 110.442 60.9847 77.6482 58.6833 73.3041C56.6575 69.4803 52.7225 67.4842 49.3692 68.3534C52.0954 66.1229 52.7439 61.6766 50.7233 57.7757C48.4623 53.4105 11.3567 49.3892 7.76201 51.2511C6.62831 51.8384 7.23411 51.8706 9.38606 51.985C14.0575 52.2334 26.0151 52.8691 43.2809 60.4108C44.0907 61.9741 44.5042 63.7647 44.8666 65.3336C45.4086 67.6807 45.8362 69.532 47.3043 69.3852C46.1445 70.5281 47.4562 71.9701 49.1354 73.816C50.219 75.0072 51.4556 76.3665 52.2798 77.9223C48.6499 96.4104 42.3648 106.603 39.9094 110.585ZM31.0405 77.5728C29.1225 77.6053 27.6071 79.9538 27.6266 81.1046C27.6349 81.5934 27.8487 81.35 28.239 80.9056C28.7674 80.3039 29.6194 79.3338 30.7227 79.3151C32.6406 79.2825 33.8382 78.6764 33.8187 77.5256C33.8075 76.8675 33.5278 76.9669 32.9316 77.1787C32.4853 77.3372 31.8616 77.5588 31.0405 77.5728ZM31.9487 76.6526C31.3397 76.1343 29.4108 75.9114 28.5471 76.9263C28.1773 77.3608 27.7832 77.5977 27.5011 77.7673C27.1244 77.9937 26.9477 78.1 27.2959 78.3964C27.9048 78.9146 28.7585 78.5394 29.6223 77.5245C30.1192 76.9407 31.0157 76.9115 31.5717 76.8934C31.9823 76.8801 32.2073 76.8727 31.9487 76.6526ZM31.5766 80.83C32.9075 80.9004 34.0715 79.3463 34.1138 78.5477C34.1317 78.2086 33.9717 78.3669 33.6798 78.6559C33.2844 79.0473 32.6469 79.6784 31.8813 79.6379C30.5505 79.5675 29.6911 79.9295 29.6489 80.728C29.6247 81.1847 29.8234 81.1293 30.2469 81.0114C30.5639 80.9232 31.0069 80.7999 31.5766 80.83ZM33.3832 105.614C32.7017 106.118 32.8598 105.747 33.4212 104.432C34.6401 101.576 37.7599 94.2667 38.3188 81.7743C37.6244 80.8345 36.6787 80.0643 35.8501 79.3893C34.566 78.3435 33.5629 77.5265 34.2111 76.6621C33.262 76.9032 32.7988 75.7303 32.2115 74.2433C31.8189 73.2493 31.3709 72.1149 30.6853 71.1687C18.6092 67.9218 10.6983 68.6839 7.60777 68.9816C6.18408 69.1188 5.78329 69.1574 6.46946 68.6601C8.64516 67.0835 33.3955 66.063 35.3101 68.7051C37.0209 71.066 37.0339 74.048 35.4649 75.7809C37.58 74.8798 40.3595 75.8018 42.0662 78.1116C44.0052 80.7358 35.5442 104.017 33.3832 105.614ZM19.3455 90.6794C19.4689 90.461 19.6445 90.2754 19.8755 90.1833C20.1529 90.0726 20.3364 89.9169 20.4677 89.8054C20.6431 89.6565 20.7254 89.5867 20.8141 89.809C20.9691 90.1978 20.6401 90.5583 19.9921 90.8167C19.8177 90.8862 19.6888 91.0195 19.5906 91.1697L21.9951 95.9785L19.9955 92.9792L18.4958 90.9796V91.2574C18.4958 91.4038 18.4651 91.5486 18.4056 91.6825L16.4963 95.9785L17.4711 91.5917C17.4877 91.5171 17.4961 91.441 17.4961 91.3646V90.9796C17.1962 90.6797 16.7407 90.5862 16.3492 90.7493L10.9975 92.9792L16.9962 89.9798L17.8336 89.5611C17.9404 89.5077 18.0581 89.4799 18.1774 89.4799C18.3813 89.4799 18.5768 89.5609 18.721 89.7051L18.855 89.8391C18.9482 89.9323 19.0258 90.0399 19.0847 90.1578L19.1632 90.3148C19.2002 90.2724 19.2406 90.2215 19.2812 90.1594C19.4568 89.8904 19.7886 89.7962 19.8825 89.8575C19.9223 89.8835 19.8828 89.9013 19.8107 89.9337C19.7131 89.9777 19.5557 90.0485 19.4547 90.2032C19.3793 90.3187 19.3071 90.41 19.2417 90.4718L19.3455 90.6794ZM21.3209 90.1342C21.3678 90.3575 21.1609 90.8714 20.7887 90.9496C20.6294 90.9831 20.5163 91.0496 20.4354 91.0972C20.3273 91.1608 20.2766 91.1906 20.2497 91.063C20.2028 90.8397 20.4132 90.6768 20.7853 90.5986C20.9994 90.5536 21.1288 90.3328 21.2092 90.1959C21.2685 90.0948 21.301 90.0394 21.3209 90.1342ZM24.1482 99.0088C24.1269 99.5284 24.1209 99.6747 24.2877 99.4156C24.8166 98.5941 24.6916 89.5872 23.694 88.945C22.8157 88.3796 21.7516 88.4245 21.1487 89.0039C21.4589 88.2123 21.07 87.1999 20.1838 86.6177C19.1922 85.9662 10.9084 89.5044 10.3719 90.321C10.2028 90.5785 10.334 90.5137 10.8004 90.2835C11.8129 89.7838 14.4044 88.5047 18.929 88.0517C19.2841 88.285 19.5827 88.6129 19.8444 88.9003C20.2358 89.3302 20.5446 89.6694 20.8363 89.4648C20.7272 89.8424 21.1736 89.9908 21.7452 90.1809L21.7452 90.1809C22.114 90.3035 22.5348 90.4435 22.8921 90.6735C24.3127 94.9931 24.1944 97.8807 24.1482 99.0088ZM23.9616 84.367C22.5453 84.717 21.821 86.7154 22.0311 87.5652C22.1203 87.9262 22.2374 87.7094 22.4512 87.3137C22.7407 86.7778 23.2074 85.9139 24.0221 85.7126C25.4384 85.3625 26.2232 84.7096 26.0131 83.8599C25.893 83.3739 25.7025 83.4951 25.2966 83.7534C24.9926 83.9468 24.568 84.2171 23.9616 84.367ZM23.5924 83.5684C23.059 83.405 21.762 83.7958 21.4896 84.6847C21.373 85.0653 21.1862 85.326 21.0525 85.5127C20.8738 85.7619 20.79 85.8789 21.095 85.9724C21.6284 86.1358 22.0713 85.6593 22.3437 84.7704C22.5004 84.2591 23.0665 83.9924 23.4176 83.8269C23.6769 83.7048 23.8189 83.6379 23.5924 83.5684ZM25.5665 86.7372C26.4664 86.5033 26.9127 85.2243 26.7724 84.6844C26.7128 84.4551 26.6398 84.5942 26.5066 84.8479C26.3262 85.1916 26.0354 85.7456 25.5177 85.8802C24.6179 86.114 24.1228 86.536 24.2631 87.0759C24.3434 87.3847 24.4638 87.306 24.7205 87.1383C24.9127 87.0127 25.1813 86.8373 25.5665 86.7372ZM30.4633 104.756C30.0436 105.246 30.0979 104.944 30.2906 103.874C30.7088 101.55 31.7796 95.6008 30.0711 86.245C29.3966 85.6663 28.5647 85.256 27.8357 84.8965C26.7059 84.3393 25.8234 83.9041 26.1574 83.1529C25.4947 83.4933 24.9519 82.7025 24.2638 81.6998C23.8039 81.0296 23.279 80.2648 22.6099 79.6799C13.1061 79.325 7.37117 81.2342 5.13069 81.98C4.0986 82.3236 3.80805 82.4204 4.23222 81.9352C5.57719 80.3967 23.7515 75.4345 25.6197 77.0677C27.2893 78.5274 27.8056 80.7361 26.9365 82.2873C28.3514 81.2595 30.5688 81.4706 32.2267 82.8931C34.11 84.5089 31.7939 103.206 30.4633 104.756ZM70.412 33.2778C71.8401 31.954 69.5047 36.0528 58.5162 50.6574C60.2172 52.4924 59.7581 52.8512 58.5461 53.7985C58.2267 54.0482 57.8551 54.3386 57.4569 54.7078C55.7726 56.2691 55.5805 56.0556 54.0833 54.3921C53.8832 54.1698 53.6599 53.9217 53.4065 53.6484C51.2573 51.3298 68.5026 35.0478 70.412 33.2778ZM70.606 67.5743C86.1721 57.9962 90.4709 56.0534 89.0196 57.3518C87.0793 59.0877 69.2594 74.7389 67.1515 72.3827C66.903 72.105 66.6768 71.8595 66.4741 71.6395C64.9575 69.9937 64.7629 69.7825 66.4746 68.2512C66.8791 67.8892 67.203 67.5464 67.4812 67.2517L67.4814 67.2515C68.5377 66.1331 68.9377 65.7095 70.606 67.5743ZM65.7721 61.3192C67.5078 66.529 59.9944 73.8117 59.9944 73.8117L59.729 70.3615C59.5798 68.4214 58.061 66.8675 56.1248 66.6739L55.3197 66.5934C54.6048 66.5219 53.8829 66.5849 53.1913 66.7791L51.098 67.5319L52.4448 65.7361C52.5934 65.538 52.7559 65.3507 52.931 65.1756L53.39 64.7165C53.6056 64.501 53.7939 64.2597 53.9508 63.9983C54.7526 62.6619 54.6386 60.9679 53.6651 59.7509L51.098 56.542C51.6701 56.6565 52.6103 56.7002 53.7487 56.7531H53.7487H53.7487H53.7488H53.7488H53.7489H53.749H53.749H53.749H53.7491H53.7491H53.7492H53.7492H53.7493H53.7493H53.7494H53.7494H53.7495H53.7495C57.8182 56.9421 64.4159 57.2486 65.7721 61.3192ZM64.0581 65.0385L63.6577 65.4385L63.6992 64.7759C63.7338 64.2251 63.9855 63.7106 64.3991 63.3452C64.6371 63.9268 64.5026 64.5944 64.0581 65.0385ZM64.3754 64.2569C64.4058 64.2569 64.4305 64.2322 64.4305 64.2018C64.4305 64.1932 64.4286 64.1852 64.4251 64.1779C64.4281 64.168 64.4297 64.1574 64.4297 64.1465C64.4297 64.0861 64.3807 64.0371 64.3202 64.0371C64.2598 64.0371 64.2108 64.0861 64.2108 64.1465C64.2108 64.207 64.2598 64.256 64.3202 64.256C64.3311 64.256 64.3416 64.2544 64.3514 64.2514C64.3587 64.2549 64.3668 64.2569 64.3754 64.2569ZM64.3202 64.4749C64.3202 64.5353 64.2713 64.5843 64.2108 64.5843C64.1504 64.5843 64.1014 64.5353 64.1014 64.4749C64.1014 64.4145 64.1504 64.3655 64.2108 64.3655C64.2713 64.3655 64.3202 64.4145 64.3202 64.4749ZM64.0992 64.2783C64.0998 64.2753 64.1003 64.2723 64.1006 64.2693L64.1012 64.2635L64.1014 64.2561C64.1014 64.1956 64.0524 64.1466 63.992 64.1466C63.9316 64.1466 63.8826 64.1956 63.8826 64.2561C63.8826 64.3165 63.9316 64.3655 63.992 64.3655C64.0029 64.3655 64.0135 64.3639 64.0235 64.3609C64.0306 64.3643 64.0386 64.3662 64.0471 64.3662C64.0775 64.3662 64.1022 64.3415 64.1022 64.3111C64.1022 64.3026 64.1003 64.2946 64.0969 64.2874C64.0978 64.2844 64.0985 64.2814 64.0992 64.2783ZM61.5644 59.5437L62.1017 59.7214C62.6983 59.9187 63.1181 60.4549 63.1665 61.0814C62.6329 60.9406 62.177 60.5938 61.8989 60.1171L61.5644 59.5437ZM62.8341 60.3518C62.8292 60.3421 62.823 60.3334 62.8159 60.3258C62.8158 60.3179 62.8139 60.3098 62.8101 60.3022C62.7964 60.275 62.7633 60.264 62.7361 60.2777C62.7285 60.2815 62.7221 60.2868 62.7172 60.2931C62.707 60.295 62.6969 60.2983 62.6872 60.3031C62.6332 60.3303 62.6114 60.396 62.6385 60.45C62.6657 60.504 62.7314 60.5258 62.7854 60.4987C62.8394 60.4716 62.8612 60.4058 62.8341 60.3518ZM62.4421 60.0589C62.4961 60.0318 62.5619 60.0536 62.589 60.1076C62.6161 60.1616 62.5943 60.2273 62.5403 60.2545C62.4863 60.2816 62.4205 60.2598 62.3934 60.2058C62.3663 60.1518 62.3881 60.086 62.4421 60.0589ZM62.3448 60.3527C62.3496 60.3503 62.3545 60.3483 62.3595 60.3466L62.3665 60.3445C62.3693 60.3438 62.372 60.3432 62.3748 60.3427C62.3797 60.3364 62.3861 60.3311 62.3937 60.3272C62.4209 60.3136 62.454 60.3245 62.4677 60.3517C62.4694 60.3551 62.4707 60.3586 62.4716 60.3622C62.4728 60.3666 62.4734 60.371 62.4735 60.3754C62.4772 60.3794 62.4807 60.3836 62.4838 60.3882C62.4867 60.3923 62.4893 60.3967 62.4916 60.4014C62.5188 60.4554 62.497 60.5212 62.443 60.5483C62.389 60.5754 62.3232 60.5536 62.2961 60.4996C62.269 60.4456 62.2907 60.3798 62.3448 60.3527ZM95.9757 52.1081C96.2501 53.111 95.0527 53.8571 94.2734 53.1688L89.8579 49.2694L89.8583 49.348C89.8598 49.6624 89.9751 49.9655 90.1829 50.2014L91.9368 52.1922C92.2176 52.5109 92.3803 52.9166 92.3976 53.3411L92.5246 56.4602L92.8101 56.4717C92.9475 56.4772 93.0125 56.6437 92.9151 56.7408L91.822 57.8299C91.7204 57.931 91.5475 57.8551 91.5533 57.7119L91.5986 56.5808C91.6021 56.4938 91.6755 56.4262 91.7624 56.4296L91.9716 56.438L91.8464 53.3635C91.8343 53.0655 91.7201 52.7807 91.5229 52.5568L89.769 50.5661C89.473 50.2301 89.3088 49.7983 89.3067 49.3506L89.304 48.7802L84.558 44.5889L84.5209 45.1014L84.4308 46.343C84.4081 46.6565 84.4997 46.9677 84.6887 47.2189L86.284 49.3388C86.5395 49.6783 86.6705 50.0953 86.655 50.5198L86.5413 53.6393L86.8251 53.6727C86.9617 53.6888 87.0136 53.8598 86.909 53.9491L85.7352 54.9507C85.6262 55.0438 85.4596 54.9547 85.4764 54.8124L85.6088 53.6882C85.6189 53.6017 85.6973 53.5399 85.7837 53.5501L85.9916 53.5745L86.1037 50.4997C86.1146 50.2016 86.0226 49.9089 85.8433 49.6705L84.248 47.5506C83.9787 47.1928 83.8482 46.7496 83.8806 46.3031L83.9707 45.0615L84.0383 44.1299L80.3794 40.8986L80.2357 41.3637C80.143 41.6641 80.1622 41.9879 80.2898 42.2752L81.3668 44.6999C81.5392 45.0882 81.573 45.524 81.4623 45.9342L80.649 48.948L80.918 49.0445C81.0475 49.0909 81.0596 49.2693 80.9375 49.3327L79.5684 50.0443C79.4412 50.1104 79.299 49.9862 79.3474 49.8513L79.7295 48.7857C79.7589 48.7038 79.8491 48.6612 79.931 48.6906L80.1281 48.7612L80.9297 45.7904C81.0074 45.5024 80.9837 45.1965 80.8626 44.9239L79.7856 42.4992C79.6039 42.09 79.5765 41.6288 79.7086 41.201L79.9257 40.498L78.7623 39.4705C78.2323 39.0024 78.3093 38.1543 78.9151 37.7894L89.0145 31.7066C89.609 31.3486 90.3809 31.6577 90.5641 32.327L90.5689 32.3448L90.8818 32.3939L92.1116 32.5866C92.554 32.6559 92.9562 32.8832 93.2439 33.2263L94.9487 35.2592C95.1403 35.4878 95.4048 35.6435 95.6976 35.7003L98.7183 36.2857L98.7414 36.0778C98.7511 35.9913 98.829 35.929 98.9155 35.9386L100.041 36.0636C100.183 36.0794 100.232 36.2618 100.117 36.347L98.876 37.2641C98.7654 37.3459 98.6104 37.2566 98.6256 37.1199L98.6572 36.8358L95.5926 36.2419C95.1756 36.161 94.7989 35.9392 94.526 35.6137L92.8212 33.5807C92.6192 33.3398 92.3368 33.1803 92.0262 33.1316L90.7964 32.9388L90.7285 32.9282L91.977 37.4916L92.0033 37.4263L93.7064 38.1117L94.8612 38.5764C95.2766 38.7436 95.6173 39.0555 95.8204 39.4546L97.0236 41.8192C97.1589 42.0851 97.3814 42.2963 97.654 42.4176L100.465 43.6682L100.535 43.4707C100.564 43.3886 100.653 43.3454 100.736 43.3742L101.804 43.7494C101.939 43.7969 101.946 43.9856 101.814 44.0427L100.399 44.6568C100.272 44.7115 100.142 44.5897 100.187 44.46L100.282 44.1903L97.4298 42.9216C97.0416 42.7489 96.7246 42.448 96.5319 42.0694L95.3287 39.7048C95.1862 39.4246 94.9469 39.2055 94.6553 39.0882L93.5005 38.6234L92.1365 38.0746L93.7792 44.0793L94.0986 44.2374L95.2142 44.7897C95.6155 44.9884 95.9312 45.3257 96.1029 45.7392L97.1203 48.1895C97.2347 48.465 97.4404 48.6927 97.7028 48.8346L100.409 50.2981L100.494 50.1065C100.529 50.0268 100.622 49.9907 100.702 50.0258L101.738 50.4821C101.869 50.5399 101.861 50.7286 101.725 50.7753L100.267 51.2786C100.137 51.3234 100.016 51.1919 100.071 51.0661L100.186 50.8046L97.4404 49.3199C97.0667 49.1178 96.7738 48.7934 96.6109 48.401L95.5934 45.9507C95.4729 45.6604 95.2512 45.4236 94.9695 45.2841L93.974 44.7913L95.9757 52.1081ZM90.6042 44.3549C90.6999 44.7046 90.2823 44.9647 90.0105 44.7247L84.6017 39.948C84.4168 39.7848 84.4437 39.489 84.655 39.3618L88.1767 37.2406C88.384 37.1158 88.6532 37.2236 88.7171 37.457L90.6042 44.3549ZM77.6302 26.9854C77.5008 26.6429 77.896 26.3418 78.192 26.5573L82.0644 29.377C82.1112 29.3161 82.1559 29.2538 82.1987 29.1912C82.3566 28.9592 82.4902 28.7175 82.6155 28.4777C82.6781 28.358 82.7376 28.2384 82.7968 28.1193L82.797 28.1189L82.7972 28.1186C82.8567 27.9989 82.916 27.8797 82.9779 27.7615C83.1009 27.5259 83.2308 27.2983 83.366 27.0794C83.906 26.2063 84.5353 25.4635 85.1847 24.9825C85.508 24.7432 85.8322 24.5728 86.1232 24.4786C86.4142 24.3814 86.6672 24.354 86.8639 24.3575C87.0612 24.3608 87.2064 24.3873 87.302 24.4093L87.4462 24.4464L87.2984 24.4173C87.2009 24.4006 87.0535 24.3817 86.8568 24.3873C86.6607 24.3927 86.4121 24.4304 86.1311 24.5351C85.8501 24.6367 85.541 24.8116 85.2336 25.0519C84.6166 25.5347 84.0202 26.2708 83.5058 27.1333C83.3772 27.3493 83.2533 27.5738 83.1361 27.8055C83.0806 27.915 83.0263 28.0272 82.9713 28.141C82.9103 28.2671 82.8483 28.3953 82.7824 28.5241C82.657 28.7692 82.5216 29.019 82.3558 29.2649C82.3075 29.336 82.2567 29.4073 82.2026 29.4776L84.0831 30.847C84.2844 30.9936 84.2854 31.2935 84.0851 31.4414L80.7454 33.908C80.5488 34.0532 80.268 33.9704 80.1816 33.7417L79.4242 31.7361L79.3558 31.7995C79.2394 31.8986 79.1015 31.9798 78.9504 32.0273C78.7993 32.0756 78.6382 32.0874 78.4827 32.0735C78.1699 32.044 77.8892 31.9241 77.6345 31.7872C77.3792 31.6485 77.1476 31.4852 76.9267 31.32C76.8106 31.2331 76.6981 31.1443 76.5874 31.0569C76.4875 30.978 76.389 30.9002 76.2906 30.8261C76.0829 30.669 75.873 30.5237 75.6629 30.3903C74.8238 29.8581 73.9748 29.5104 73.2274 29.4349C72.8551 29.3975 72.5122 29.428 72.2273 29.5143C71.9411 29.5973 71.7136 29.7269 71.5456 29.854C71.377 29.9811 71.2615 30.0999 71.1871 30.183L71.076 30.3125L71.1802 30.1772C71.2506 30.0902 71.3606 29.965 71.5256 29.8283C71.6899 29.6918 71.9162 29.5488 72.2075 29.4513C72.4973 29.3507 72.8508 29.3055 73.2361 29.331C74.0099 29.3828 74.8898 29.7152 75.7556 30.2409C75.9725 30.3727 76.189 30.5171 76.4035 30.6742C76.5111 30.7529 76.6171 30.8344 76.7235 30.9162L76.7239 30.9165C76.83 30.9981 76.9365 31.08 77.0457 31.1598C77.264 31.3198 77.4903 31.4761 77.7325 31.6059C77.9736 31.7345 78.2336 31.8413 78.5009 31.8659C78.6339 31.8777 78.7659 31.8676 78.8883 31.829C79.0108 31.7907 79.1233 31.7256 79.2224 31.6425L79.2941 31.5766C79.3087 31.5619 79.3226 31.5464 79.3366 31.531L79.3438 31.523L77.6302 26.9854ZM80.1194 31.5128C80.0883 31.4809 80.1177 31.428 80.1613 31.4376L81.0283 31.6294C81.0579 31.636 81.0726 31.6694 81.0575 31.6957L80.8048 32.134C80.7899 32.1598 80.7545 32.1642 80.7337 32.1429L80.1194 31.5128ZM81.4598 30.1717C81.4542 30.1275 81.5096 30.1031 81.5385 30.137L82.109 30.8071C82.1283 30.8297 82.1206 30.8646 82.0935 30.877L81.6337 31.088C81.6062 31.1007 81.5742 31.0829 81.5704 31.0528L81.4598 30.1717Z" fill="#232323"/>
</g>
<defs>
<filter id="filter0_i_57_266" x="0" y="0" width="128" height="132.187" filterUnits="userSpaceOnUse" color-interpolation-filters="sRGB">
<feFlood flood-opacity="0" result="BackgroundImageFix"/>
<feBlend mode="normal" in="SourceGraphic" in2="BackgroundImageFix" result="shape"/>
<feColorMatrix in="SourceAlpha" type="matrix" values="0 0 0 0 0 0 0 0 0 0 0 0 0 0 0 0 0 0 127 0" result="hardAlpha"/>
<feOffset dy="4.18656"/>
<feGaussianBlur stdDeviation="2.09328"/>
<feComposite in2="hardAlpha" operator="arithmetic" k2="-1" k3="1"/>
<feColorMatrix type="matrix" values="0 0 0 0 0 0 0 0 0 0 0 0 0 0 0 0 0 0 0.25 0"/>
<feBlend mode="normal" in2="shape" result="effect1_innerShadow_57_266"/>
</filter>
</defs>
</svg>
