<svg width="18" height="15" viewBox="0 0 18 15" fill="none" xmlns="http://www.w3.org/2000/svg">
<path fill-rule="evenodd" clip-rule="evenodd" d="M0.87868 1.73415C0 2.61283 0 4.02704 0 6.85547V8.85547C0 11.6839 0 13.0981 0.87868 13.9768C1.75736 14.8555 3.17157 14.8555 6 14.8555H12C14.8284 14.8555 16.2426 14.8555 17.1213 13.9768C18 13.0981 18 11.6839 18 8.85547V6.85547C18 4.02704 18 2.61283 17.1213 1.73415C16.2426 0.855469 14.8284 0.855469 12 0.855469H6C3.17157 0.855469 1.75736 0.855469 0.87868 1.73415ZM3.5547 4.02342C3.09517 3.71707 2.4743 3.84124 2.16795 4.30077C1.8616 4.7603 1.98577 5.38117 2.4453 5.68752L7.8906 9.31772C8.5624 9.76558 9.4376 9.76558 10.1094 9.31772L15.5547 5.68752C16.0142 5.38117 16.1384 4.7603 15.8321 4.30077C15.5257 3.84124 14.9048 3.71707 14.4453 4.02342L9 7.65362L3.5547 4.02342Z" fill="#F1F1F1"/>
</svg>
