<svg width="23" height="23" viewBox="0 0 23 23" fill="none" xmlns="http://www.w3.org/2000/svg">
<path fill-rule="evenodd" clip-rule="evenodd" d="M10.3886 11.8495L1.76491 8.97498C0.588304 8.58277 0 8.38667 0 8.02629C0 7.66591 0.588304 7.46981 1.76491 7.07761L21.0215 0.658749C21.8494 0.382784 22.2633 0.244801 22.4818 0.463309C22.7004 0.681817 22.5624 1.09576 22.2864 1.92366L15.8675 21.1802L15.8675 21.1803C15.4753 22.3569 15.2792 22.9452 14.9189 22.9452C14.5585 22.9452 14.3624 22.3569 13.9702 21.1802L11.0957 12.5567L16.6057 7.04659C16.801 6.85133 16.801 6.53475 16.6057 6.33949C16.4105 6.14423 16.0939 6.14423 15.8986 6.33949L10.3886 11.8495Z" fill="#F1F1F1"/>
</svg>
