<svg width="42" height="42" viewBox="0 0 42 42" fill="none" xmlns="http://www.w3.org/2000/svg">
<path d="M25.1801 2.80099H24.1801V2.85087L24.1851 2.9005L25.1801 2.80099ZM25.1801 2.80097H26.1801V2.7511L26.1751 2.70147L25.1801 2.80097ZM25.4622 5.62182L24.4671 5.72132V5.72132L25.4622 5.62182ZM28.7187 6.97073L28.0855 6.19677V6.19677L28.7187 6.97073ZM30.9128 5.17559L31.546 5.94955V5.94955L30.9128 5.17559ZM32.2963 4.37772L32.3461 3.37896L32.2963 4.37772ZM33.5935 5.30929L34.3006 4.60219L33.5935 5.30929ZM36.6906 8.40646L37.3977 7.69935L36.6906 8.40646ZM37.6222 9.70367L38.621 9.65386L38.621 9.65385L37.6222 9.70367ZM36.8243 11.0871L36.0504 10.4539L36.8243 11.0871ZM35.0291 13.2813L35.8031 13.9145V13.9145L35.0291 13.2813ZM33.6988 15.74L34.6227 15.3573L34.6226 15.3573L33.6988 15.74ZM36.3781 16.5378L36.2786 17.5328L36.3781 16.5378ZM39.199 16.8199L39.0995 17.8149L39.199 16.8199ZM40.7415 17.234L40 17.905L40 17.905L40.7415 17.234ZM40.7415 24.766L40 24.095L40 24.095L40.7415 24.766ZM39.199 25.1801L39.2985 26.1751H39.2985L39.199 25.1801ZM36.3788 25.4621L36.2793 24.4671L36.3788 25.4621ZM33.6995 26.26L34.6234 26.6427L34.6234 26.6426L33.6995 26.26ZM35.0299 28.7187L34.2559 29.3519L35.0299 28.7187ZM36.8244 30.912L36.0505 31.5452L36.8244 30.912ZM37.6223 32.2954L38.6211 32.3453L38.6211 32.3452L37.6223 32.2954ZM36.6907 33.5927L35.9836 32.8855L36.6907 33.5927ZM33.5936 36.6898L32.8864 35.9827L33.5936 36.6898ZM32.2963 37.6214L32.3461 38.6202L32.3462 38.6202L32.2963 37.6214ZM30.9129 36.8235L31.5461 36.0496L30.9129 36.8235ZM28.7188 35.0284L29.3521 34.2544L28.7188 35.0284ZM26.2601 33.698L25.8774 32.7741L25.8774 32.7741L26.2601 33.698ZM25.4623 36.3773L24.4672 36.2778L25.4623 36.3773ZM25.1801 39.199L26.1751 39.2985V39.2985L25.1801 39.199ZM24.766 40.7415L24.095 40L24.095 40L24.766 40.7415ZM17.234 40.7415L17.905 40L17.905 40L17.234 40.7415ZM16.8199 39.199L15.8249 39.2985L16.8199 39.199ZM16.5378 36.3781L17.5328 36.2786L16.5378 36.3781ZM15.74 33.6988L16.1226 32.7749L16.1226 32.7749L15.74 33.6988ZM13.2812 35.0292L13.9145 35.8031L13.2812 35.0292ZM11.087 36.8244L10.4538 36.0505H10.4538L11.087 36.8244ZM9.70358 37.6223L9.65376 38.6211L9.65377 38.6211L9.70358 37.6223ZM8.40636 36.6907L7.69925 37.3978H7.69925L8.40636 36.6907ZM5.3092 33.5936L6.0163 32.8865L6.0163 32.8865L5.3092 33.5936ZM5.1755 30.9129L5.94945 31.5461L5.1755 30.9129ZM6.97071 28.7187L7.74466 29.352L6.97071 28.7187ZM8.30109 26.26L9.22497 25.8773L8.30109 26.26ZM5.6218 25.4622L5.5223 26.4572H5.5223L5.6218 25.4622ZM2.80099 25.1801L2.9005 24.1851L2.85087 24.1801H2.80099V25.1801ZM2.80097 25.1801L2.70147 26.1751L2.7511 26.1801H2.80097V25.1801ZM1.25855 24.766L2 24.095H2L1.25855 24.766ZM1.25855 17.234L0.517095 16.563L0.517094 16.563L1.25855 17.234ZM2.80099 16.8199L2.70149 15.8249H2.70149L2.80099 16.8199ZM5.62255 16.5377L5.72205 17.5328H5.72205L5.62255 16.5377ZM6.97146 13.2812L6.1975 13.9144L6.97146 13.2812ZM5.17558 11.0862L4.40163 11.7195H4.40163L5.17558 11.0862ZM5.30929 8.40555L4.60218 7.69844L5.30929 8.40555ZM11.0871 5.17469L11.7204 4.40073L11.7204 4.40073L11.0871 5.17469ZM13.2813 6.96994L12.6481 7.7439L12.6644 7.75727L12.6813 7.76994L13.2813 6.96994ZM13.2813 6.96994L13.9146 6.19598L13.8982 6.18261L13.8813 6.16994L13.2813 6.96994ZM15.74 8.30032L16.1227 9.2242L15.74 8.30032ZM16.5379 5.62103L17.5329 5.72054V5.72054L16.5379 5.62103ZM16.8199 2.80099L15.8249 2.70149V2.70149L16.8199 2.80099ZM17.234 1.25855L16.563 0.517094L16.563 0.517095L17.234 1.25855ZM24.766 1.25855L24.095 2V2L24.766 1.25855ZM26.1801 2.80099V2.80097H24.1801V2.80099H26.1801ZM26.4572 5.52232L26.1751 2.70149L24.1851 2.9005L24.4671 5.72132L26.4572 5.52232ZM26.6427 7.37723C26.8166 7.44926 26.772 7.59087 26.6848 7.2442C26.5973 6.89612 26.5423 6.37289 26.4572 5.52232L24.4671 5.72132C24.5454 6.50429 24.613 7.20622 24.7453 7.73215C24.8779 8.25949 25.1506 8.92398 25.8773 9.22499L26.6427 7.37723ZM28.0855 6.19677C27.4239 6.73807 27.015 7.06916 26.707 7.25338C26.4002 7.43684 26.4688 7.3052 26.6427 7.37723L25.8773 9.22499C26.604 9.526 27.2667 9.24896 27.7334 8.96988C28.1989 8.69155 28.743 8.24296 29.352 7.74469L28.0855 6.19677ZM30.2795 4.40164L28.0855 6.19677L29.352 7.74469L31.546 5.94955L30.2795 4.40164ZM32.3461 3.37896C31.8713 3.35528 31.4869 3.52576 31.1807 3.71664C30.8989 3.89242 30.5917 4.14621 30.2795 4.40164L31.546 5.94955C31.8996 5.66026 32.0918 5.50552 32.239 5.41374C32.3619 5.33707 32.3364 5.38096 32.2464 5.37648L32.3461 3.37896ZM34.3006 4.60219C34.0154 4.31696 33.735 4.03387 33.472 3.83092C33.1864 3.61052 32.8208 3.40264 32.3461 3.37896L32.2464 5.37648C32.1565 5.37199 32.1354 5.32577 32.2502 5.4143C32.3875 5.52027 32.5633 5.69337 32.8864 6.0164L34.3006 4.60219ZM37.3977 7.69935L34.3006 4.60219L32.8864 6.0164L35.9835 9.11356L37.3977 7.69935ZM38.621 9.65385C38.5973 9.1791 38.3894 8.81353 38.169 8.52793C37.966 8.26492 37.683 7.98457 37.3977 7.69935L35.9835 9.11356C36.3066 9.43659 36.4796 9.61244 36.5856 9.74977C36.6742 9.8645 36.6279 9.84341 36.6234 9.75349L38.621 9.65385ZM37.5983 11.7204C37.8537 11.4082 38.1075 11.1011 38.2833 10.8192C38.4742 10.5131 38.6446 10.1286 38.621 9.65386L36.6234 9.75348C36.619 9.66356 36.6629 9.63798 36.5862 9.76095C36.4944 9.90814 36.3397 10.1003 36.0504 10.4539L37.5983 11.7204ZM35.8031 13.9145L37.5983 11.7204L36.0504 10.4539L34.2552 12.648L35.8031 13.9145ZM34.6226 15.3573C34.6947 15.5312 34.563 15.5998 34.7465 15.293C34.9307 14.9849 35.2618 14.5761 35.8031 13.9145L34.2552 12.648C33.7569 13.257 33.3083 13.8011 33.03 14.2666C32.7509 14.7333 32.4739 15.3959 32.7749 16.1226L34.6226 15.3573ZM36.4776 15.5428C35.627 15.4577 35.1038 15.4027 34.7557 15.3151C34.409 15.2279 34.5506 15.1834 34.6227 15.3573L32.7749 16.1226C33.0759 16.8493 33.7404 17.122 34.2677 17.2547C34.7937 17.387 35.4956 17.4545 36.2786 17.5328L36.4776 15.5428ZM39.2985 15.8249L36.4776 15.5428L36.2786 17.5328L39.0995 17.8149L39.2985 15.8249ZM41.4829 16.563C41.1639 16.2105 40.7716 16.0592 40.4201 15.9777C40.0965 15.9027 39.6999 15.865 39.2985 15.8249L39.0995 17.8149C39.5541 17.8604 39.7994 17.8869 39.9684 17.9261C40.1095 17.9588 40.0604 17.9717 40 17.905L41.4829 16.563ZM42 18.81C42 18.4066 42.0019 18.0082 41.9595 17.6787C41.9134 17.3209 41.8019 16.9154 41.4829 16.563L40 17.905C39.9396 17.8382 39.9574 17.7906 39.9759 17.9344C39.9981 18.1064 40 18.3531 40 18.81H42ZM42 23.19V18.81H40V23.19H42ZM41.4829 25.437C41.8019 25.0846 41.9134 24.6791 41.9595 24.3213C42.0019 23.9918 42 23.5934 42 23.19H40C40 23.6469 39.9981 23.8936 39.9759 24.0656C39.9574 24.2094 39.9396 24.1618 40 24.095L41.4829 25.437ZM39.2985 26.1751C39.6999 26.135 40.0965 26.0973 40.4201 26.0223C40.7716 25.9408 41.1639 25.7895 41.4829 25.437L40 24.095C40.0604 24.0283 40.1095 24.0412 39.9684 24.0739C39.7994 24.1131 39.5541 24.1396 39.0995 24.1851L39.2985 26.1751ZM36.4783 26.4572L39.2985 26.1751L39.0995 24.1851L36.2793 24.4671L36.4783 26.4572ZM34.6234 26.6426C34.5514 26.8165 34.4098 26.772 34.7564 26.6848C35.1045 26.5972 35.6277 26.5422 36.4783 26.4572L36.2793 24.4671C35.4963 24.5454 34.7944 24.6129 34.2685 24.7452C33.7411 24.8779 33.0767 25.1506 32.7756 25.8773L34.6234 26.6426ZM35.8039 28.0854C35.2626 27.4238 34.9315 27.015 34.7473 26.7069C34.5638 26.4001 34.6954 26.4688 34.6234 26.6427L32.7756 25.8773C32.4746 26.604 32.7517 27.2667 33.0307 27.7334C33.3091 28.1988 33.7577 28.7429 34.2559 29.3519L35.8039 28.0854ZM37.5984 30.2787L35.8039 28.0854L34.2559 29.3519L36.0505 31.5452L37.5984 30.2787ZM38.6211 32.3452C38.6447 31.8705 38.4743 31.4861 38.2834 31.1799C38.1076 30.898 37.8538 30.5909 37.5984 30.2787L36.0505 31.5452C36.3397 31.8988 36.4945 32.091 36.5863 32.2382C36.6629 32.3611 36.6191 32.3356 36.6235 32.2456L38.6211 32.3452ZM37.3978 34.2998C37.683 34.0145 37.9661 33.7342 38.1691 33.4712C38.3895 33.1856 38.5974 32.82 38.6211 32.3453L36.6235 32.2456C36.628 32.1557 36.6742 32.1346 36.5857 32.2493C36.4797 32.3867 36.3066 32.5625 35.9836 32.8855L37.3978 34.2998ZM34.3007 37.3969L37.3978 34.2998L35.9836 32.8855L32.8864 35.9827L34.3007 37.3969ZM32.3462 38.6202C32.8209 38.5965 33.1865 38.3886 33.4721 38.1682C33.7351 37.9652 34.0154 37.6821 34.3007 37.3969L32.8864 35.9827C32.5634 36.3057 32.3876 36.4788 32.2502 36.5848C32.1355 36.6733 32.1566 36.6271 32.2465 36.6226L32.3462 38.6202ZM30.2796 37.5975C30.5918 37.8529 30.8989 38.1067 31.1808 38.2825C31.487 38.4734 31.8714 38.6438 32.3461 38.6202L32.2465 36.6226C32.3365 36.6182 32.362 36.662 32.2391 36.5854C32.0919 36.4936 31.8997 36.3388 31.5461 36.0496L30.2796 37.5975ZM28.0856 35.8023L30.2796 37.5975L31.5461 36.0496L29.3521 34.2544L28.0856 35.8023ZM26.6428 34.6219C26.4689 34.6939 26.4003 34.5623 26.7071 34.7457C27.0151 34.93 27.424 35.261 28.0856 35.8023L29.3521 34.2544C28.743 33.7562 28.199 33.3076 27.7335 33.0292C27.2668 32.7502 26.6041 32.4731 25.8774 32.7741L26.6428 34.6219ZM26.4573 36.4768C26.5424 35.6262 26.5973 35.103 26.6849 34.7549C26.7721 34.4082 26.8167 34.5499 26.6428 34.6219L25.8774 32.7741C25.1507 33.0751 24.878 33.7396 24.7454 34.267C24.613 34.7929 24.5455 35.4948 24.4672 36.2778L26.4573 36.4768ZM26.1751 39.2985L26.4573 36.4768L24.4672 36.2778L24.1851 39.0995L26.1751 39.2985ZM25.437 41.4829C25.7895 41.1639 25.9408 40.7716 26.0222 40.4201C26.0973 40.0965 26.135 39.6999 26.1751 39.2985L24.1851 39.0995C24.1396 39.5541 24.1131 39.7994 24.0739 39.9684C24.0412 40.1095 24.0282 40.0604 24.095 40L25.437 41.4829ZM23.19 42C23.5934 42 23.9918 42.0019 24.3213 41.9595C24.6791 41.9134 25.0846 41.8019 25.437 41.4829L24.095 40C24.1618 39.9396 24.2094 39.9574 24.0656 39.9759C23.8936 39.9981 23.6469 40 23.19 40V42ZM18.81 42H23.19V40H18.81V42ZM16.563 41.4829C16.9154 41.8019 17.3209 41.9134 17.6787 41.9595C18.0082 42.0019 18.4066 42 18.81 42V40C18.3531 40 18.1064 39.9981 17.9344 39.9759C17.7906 39.9574 17.8382 39.9396 17.905 40L16.563 41.4829ZM15.8249 39.2985C15.865 39.6999 15.9027 40.0965 15.9777 40.4201C16.0592 40.7716 16.2105 41.1639 16.563 41.4829L17.905 40C17.9717 40.0604 17.9588 40.1095 17.9261 39.9684C17.8869 39.7994 17.8604 39.5541 17.8149 39.0995L15.8249 39.2985ZM15.5428 36.4776L15.8249 39.2985L17.8149 39.0995L17.5328 36.2786L15.5428 36.4776ZM15.3573 34.6227C15.1834 34.5506 15.2279 34.409 15.3151 34.7557C15.4027 35.1038 15.4577 35.627 15.5428 36.4776L17.5328 36.2786C17.4545 35.4956 17.387 34.7937 17.2547 34.2678C17.122 33.7404 16.8493 33.0759 16.1226 32.7749L15.3573 34.6227ZM13.9145 35.8031C14.5761 35.2618 14.9849 34.9307 15.293 34.7465C15.5998 34.5631 15.5312 34.6947 15.3573 34.6227L16.1226 32.7749C15.3959 32.4739 14.7332 32.7509 14.2665 33.03C13.8011 33.3083 13.257 33.7569 12.648 34.2552L13.9145 35.8031ZM11.7203 37.5984L13.9145 35.8031L12.648 34.2552L10.4538 36.0505L11.7203 37.5984ZM9.65377 38.6211C10.1285 38.6447 10.513 38.4743 10.8191 38.2834C11.101 38.1076 11.4081 37.8538 11.7203 37.5984L10.4538 36.0505C10.1002 36.3398 9.90804 36.4945 9.76085 36.5863C9.63789 36.663 9.66346 36.6191 9.75338 36.6235L9.65377 38.6211ZM7.69925 37.3978C7.98448 37.6831 8.26482 37.9661 8.52783 38.1691C8.81344 38.3895 9.179 38.5974 9.65376 38.6211L9.75339 36.6235C9.84331 36.628 9.8644 36.6743 9.74967 36.5857C9.61234 36.4797 9.4365 36.3067 9.11347 35.9836L7.69925 37.3978ZM4.60209 34.3007L7.69925 37.3978L9.11347 35.9836L6.0163 32.8865L4.60209 34.3007ZM3.37886 32.3462C3.40254 32.8209 3.61043 33.1865 3.83082 33.4721C4.03377 33.7351 4.31687 34.0154 4.60209 34.3007L6.0163 32.8865C5.69327 32.5634 5.52017 32.3876 5.4142 32.2503C5.32567 32.1355 5.3719 32.1566 5.37638 32.2465L3.37886 32.3462ZM4.40154 30.2796C4.14611 30.5918 3.89232 30.8989 3.71654 31.1808C3.52566 31.487 3.35519 31.8714 3.37886 32.3462L5.37638 32.2465C5.38087 32.3365 5.33697 32.362 5.41365 32.2391C5.50543 32.0919 5.66017 31.8997 5.94945 31.5461L4.40154 30.2796ZM6.19675 28.0855L4.40154 30.2796L5.94945 31.5461L7.74466 29.352L6.19675 28.0855ZM7.37721 26.6427C7.30518 26.4688 7.43682 26.4002 7.25335 26.707C7.06914 27.015 6.73805 27.4239 6.19675 28.0855L7.74466 29.352C8.24294 28.743 8.69153 28.1989 8.96986 27.7334C9.24894 27.2667 9.52598 26.604 9.22497 25.8773L7.37721 26.6427ZM5.5223 26.4572C6.37287 26.5423 6.89609 26.5973 7.24418 26.6848C7.59085 26.772 7.44924 26.8166 7.37721 26.6427L9.22497 25.8773C8.92396 25.1506 8.25947 24.8779 7.73213 24.7453C7.20619 24.613 6.50427 24.5454 5.7213 24.4671L5.5223 26.4572ZM2.70149 26.1751L5.5223 26.4572L5.7213 24.4671L2.9005 24.1851L2.70149 26.1751ZM2.80097 26.1801H2.80099V24.1801H2.80097V26.1801ZM0.517094 25.437C0.836053 25.7895 1.22843 25.9408 1.57987 26.0222C1.90349 26.0973 2.30011 26.135 2.70147 26.1751L2.90048 24.1851C2.44592 24.1396 2.2006 24.1131 2.03163 24.0739C1.89046 24.0412 1.93959 24.0283 2 24.095L0.517094 25.437ZM0 23.19C0 23.5934 -0.00194263 23.9918 0.0405216 24.3213C0.0866349 24.6791 0.198134 25.0846 0.517094 25.437L2 24.095C2.06041 24.1618 2.04264 24.2094 2.02412 24.0656C2.00194 23.8936 2 23.6469 2 23.19H0ZM0 18.81V23.19H2V18.81H0ZM0.517094 16.563C0.198134 16.9154 0.0866349 17.3209 0.0405216 17.6787C-0.00194263 18.0082 0 18.4066 0 18.81H2C2 18.3531 2.00194 18.1064 2.02412 17.9344C2.04264 17.7906 2.06041 17.8382 2 17.905L0.517094 16.563ZM2.70149 15.8249C2.30013 15.865 1.9035 15.9027 1.57987 15.9777C1.22844 16.0592 0.836056 16.2105 0.517095 16.563L2 17.905C1.93959 17.9717 1.89046 17.9588 2.03163 17.9261C2.20061 17.8869 2.44593 17.8604 2.9005 17.8149L2.70149 15.8249ZM5.52305 15.5427L2.70149 15.8249L2.9005 17.8149L5.72205 17.5328L5.52305 15.5427ZM7.37796 15.3572C7.44999 15.1833 7.5916 15.2279 7.24493 15.3151C6.89684 15.4027 6.37362 15.4576 5.52305 15.5427L5.72205 17.5328C6.50502 17.4545 7.20694 17.387 7.73287 17.2547C8.26022 17.122 8.92471 16.8493 9.22572 16.1226L7.37796 15.3572ZM6.1975 13.9144C6.7388 14.576 7.06989 14.9849 7.2541 15.2929C7.43757 15.5997 7.30593 15.5311 7.37796 15.3572L9.22572 16.1226C9.52673 15.3959 9.24969 14.7332 8.97061 14.2665C8.69228 13.801 8.24369 13.257 7.74541 12.648L6.1975 13.9144ZM4.40163 11.7195L6.1975 13.9144L7.74541 12.648L5.94954 10.453L4.40163 11.7195ZM3.37895 9.65295C3.35527 10.1277 3.52575 10.5121 3.71663 10.8183C3.89241 11.1002 4.1462 11.4073 4.40163 11.7195L5.94954 10.453C5.66026 10.0994 5.50552 9.90723 5.41373 9.76004C5.33706 9.63707 5.38095 9.66266 5.37647 9.75258L3.37895 9.65295ZM4.60218 7.69844C4.31696 7.98366 4.03386 8.26401 3.83091 8.52702C3.61052 8.81263 3.40263 9.17819 3.37895 9.65295L5.37647 9.75258C5.37198 9.8425 5.32576 9.86359 5.41429 9.74886C5.52026 9.61153 5.69336 9.43569 6.01639 9.11266L4.60218 7.69844ZM7.69934 4.60128L4.60218 7.69844L6.01639 9.11266L9.11356 6.01549L7.69934 4.60128ZM9.65385 3.37805C9.17909 3.40173 8.81353 3.60962 8.52792 3.83001C8.26491 4.03296 7.98456 4.31606 7.69934 4.60128L9.11356 6.01549C9.43659 5.69246 9.61243 5.51936 9.74976 5.41339C9.86449 5.32486 9.8434 5.37109 9.75348 5.37557L9.65385 3.37805ZM11.7204 4.40073C11.4082 4.1453 11.1011 3.89151 10.8192 3.71573C10.513 3.52485 10.1286 3.35437 9.65385 3.37805L9.75348 5.37557C9.66356 5.38006 9.63797 5.33616 9.76094 5.41284C9.90813 5.50462 10.1003 5.65936 10.4539 5.94864L11.7204 4.40073ZM13.9146 6.19598L11.7204 4.40073L10.4539 5.94864L12.6481 7.7439L13.9146 6.19598ZM13.8813 6.16994L13.8813 6.16994L12.6813 7.76994L12.6813 7.76994L13.8813 6.16994ZM15.3574 7.37644C15.5312 7.30441 15.5999 7.43605 15.2931 7.25259C14.985 7.06837 14.5762 6.73728 13.9146 6.19598L12.6481 7.7439C13.2571 8.24217 13.8012 8.69076 14.2666 8.9691C14.7333 9.24817 15.396 9.52521 16.1227 9.2242L15.3574 7.37644ZM15.5429 5.52153C15.4578 6.3721 15.4028 6.89533 15.3152 7.24341C15.228 7.59008 15.1835 7.44847 15.3574 7.37644L16.1227 9.2242C16.8494 8.92319 17.1221 8.2587 17.2548 7.73136C17.3871 7.20543 17.4546 6.5035 17.5329 5.72054L15.5429 5.52153ZM15.8249 2.70149L15.5429 5.52153L17.5329 5.72054L17.8149 2.9005L15.8249 2.70149ZM16.563 0.517095C16.2105 0.836056 16.0592 1.22844 15.9777 1.57987C15.9027 1.9035 15.865 2.30013 15.8249 2.70149L17.8149 2.9005C17.8604 2.44593 17.8869 2.20061 17.9261 2.03163C17.9588 1.89046 17.9717 1.93959 17.905 2L16.563 0.517095ZM18.81 0C18.4066 0 18.0082 -0.00194263 17.6787 0.0405216C17.3209 0.0866349 16.9154 0.198134 16.563 0.517094L17.905 2C17.8382 2.06041 17.7906 2.04264 17.9344 2.02412C18.1064 2.00194 18.3531 2 18.81 2V0ZM23.19 0H18.81V2H23.19V0ZM25.437 0.517094C25.0846 0.198134 24.6791 0.0866349 24.3213 0.0405216C23.9918 -0.00194263 23.5934 0 23.19 0V2C23.6469 2 23.8936 2.00194 24.0656 2.02412C24.2094 2.04264 24.1618 2.06041 24.095 2L25.437 0.517094ZM26.1751 2.70147C26.135 2.30011 26.0973 1.90349 26.0222 1.57987C25.9408 1.22843 25.7895 0.836053 25.437 0.517094L24.095 2C24.0282 1.93959 24.0412 1.89046 24.0739 2.03163C24.1131 2.2006 24.1396 2.44592 24.1851 2.90048L26.1751 2.70147ZM28 21C28 24.866 24.866 28 21 28V30C25.9706 30 30 25.9706 30 21H28ZM21 14C24.866 14 28 17.134 28 21H30C30 16.0294 25.9706 12 21 12V14ZM14 21C14 17.134 17.134 14 21 14V12C16.0294 12 12 16.0294 12 21H14ZM21 28C17.134 28 14 24.866 14 21H12C12 25.9706 16.0294 30 21 30V28Z" fill="#232323"/>
</svg>
