<svg width="23" height="24" viewBox="0 0 23 24" fill="none" xmlns="http://www.w3.org/2000/svg">
<path d="M2.90616 2.11597L3.72386 1.29828C4.24456 0.777579 5.08878 0.777579 5.60948 1.29828L9.05719 4.74599C9.57789 5.26669 9.57789 6.11091 9.05719 6.63161L6.66731 9.02149C6.2688 9.42 6.17 10.0288 6.42204 10.5329C7.87905 13.4469 10.2419 15.8097 13.1559 17.2668C13.66 17.5188 14.2688 17.42 14.6673 17.0215L17.0572 14.6316C17.5779 14.1109 18.4221 14.1109 18.9428 14.6316L22.3905 18.0793C22.9112 18.6 22.9112 19.4442 22.3905 19.9649L21.5728 20.7826C18.7577 23.5978 14.3009 23.9145 11.116 21.5258L9.50476 20.3174C7.18005 18.5738 5.11496 16.5087 3.37143 14.184L2.16302 12.5728C-0.225704 9.38786 0.0910277 4.93111 2.90616 2.11597Z" fill="#F1F1F1"/>
</svg>
