<svg width="29" height="595" viewBox="0 0 29 595" fill="none" xmlns="http://www.w3.org/2000/svg">
<rect y="39.0469" width="29" height="555.131" rx="14.5" fill="#232323"/>
<rect x="5" y="44.0469" width="19" height="545.131" rx="9.5" stroke="#F1F1F1" stroke-opacity="0.5" stroke-width="10"/>
<path d="M12.2597 7.00339C12.7956 5.05814 15.5478 5.04026 16.109 6.97839L28.1157 48.4504C28.5253 49.8654 27.3166 51.2227 25.8638 50.9791L14.9879 49.1555C14.4268 49.0614 13.8538 49.0638 13.2934 49.1625L3.11543 50.9559C1.66874 51.2109 0.450037 49.8713 0.84019 48.4551L12.2597 7.00339Z" fill="#232323"/>
<path d="M8.30508 43.9491L14.2834 22.2483L20.5837 44.01L15.9801 43.2381C14.7457 43.0311 13.4849 43.0363 12.2522 43.2535L8.30508 43.9491ZM22.3524 50.119C22.3522 50.1185 22.3521 50.118 22.3519 50.1175L22.3524 50.119Z" stroke="#F1F1F1" stroke-opacity="0.5" stroke-width="12"/>
<path fill-rule="evenodd" clip-rule="evenodd" d="M19.6257 19.1255C20.5515 22.3234 18.1521 25.516 14.8229 25.516H13.7234C10.4212 25.516 8.02594 22.3716 8.90299 19.188L12.2597 7.00348C12.7956 5.05823 15.5478 5.04035 16.109 6.97848L19.6257 19.1255Z" fill="#F1F1F1"/>
</svg>
