<svg width="29" height="594" viewBox="0 0 29 594" fill="none" xmlns="http://www.w3.org/2000/svg">
<rect x="5" y="43.8691" width="19" height="545.131" rx="9.5" fill="#232323"/>
<rect x="5" y="43.8691" width="19" height="545.131" rx="9.5" stroke="#8A8A8A" stroke-width="10"/>
<path d="M12.2597 6.82566C12.7956 4.8804 15.5478 4.86253 16.109 6.80066L28.1157 48.2727C28.5253 49.6876 27.3166 51.0449 25.8638 50.8013L14.9879 48.9777C14.4268 48.8836 13.8538 48.886 13.2934 48.9848L3.11543 50.7782C1.66874 51.0331 0.450037 49.6936 0.84019 48.2774L12.2597 6.82566Z" fill="#8A8A8A"/>
<path fill-rule="evenodd" clip-rule="evenodd" d="M19.6259 18.9477C20.5517 22.1456 18.1523 25.3382 14.8231 25.3382H13.7236C10.4214 25.3382 8.02611 22.1938 8.90315 19.0102L12.2598 6.82575C12.7957 4.88049 15.548 4.86262 16.1091 6.80075L19.6259 18.9477Z" fill="#F1F1F1"/>
</svg>
